HIERARCHY
ROOT HipCenter
{
    OFFSET 0.0 0.0 -0.0
    CHANNELS 6 Xposition Yposition Zposition Zrotation Xrotation Yrotation
    JOINT Spine
    {
        OFFSET 0.0 31.690603256225586 0.0
        CHANNELS 3 Zrotation Xrotation Yrotation
        JOINT ShoulderCenter
        {
            OFFSET 0.0 23.700000762939453 0.0
            CHANNELS 3 Zrotation Xrotation Yrotation
            JOINT LeftShoulder
            {
                OFFSET 17.891448974609375 0.0 0.0
                CHANNELS 3 Zrotation Xrotation Yrotation
                JOINT LeftElbow
                {
                    OFFSET 26.441312789916992 0.0 0.0
                    CHANNELS 3 Zrotation Xrotation Yrotation
                    JOINT LeftWrist
                    {
                        OFFSET 23.888256072998047 0.0 0.0
                        CHANNELS 3 Zrotation Xrotation Yrotation
                        JOINT LeftHand
                        {
                            OFFSET 7.5937347412109375 0.0 0.0
                            CHANNELS 3 Zrotation Xrotation Yrotation
                            End Site
                            {
                                OFFSET 3.0374937057495117 0.0 0.0
                            }
                        }
                    }
                }
            }
            JOINT RightShoulder
            {
                OFFSET -17.891448974609375 0.0 0.0
                CHANNELS 3 Zrotation Xrotation Yrotation
                JOINT RightElbow
                {
                    OFFSET -26.441312789916992 0.0 0.0
                    CHANNELS 3 Zrotation Xrotation Yrotation
                    JOINT RightWrist
                    {
                        OFFSET -23.888256072998047 0.0 0.0
                        CHANNELS 3 Zrotation Xrotation Yrotation
                        JOINT RightHand
                        {
                            OFFSET -7.5937347412109375 0.0 0.0
                            CHANNELS 3 Zrotation Xrotation Yrotation
                            End Site
                            {
                                OFFSET -3.0374937057495117 0.0 0.0
                            }
                        }
                    }
                }
            }
            End Site
            {
                OFFSET 0.0 9.480001449584961 0.0
            }
        }
    }
    JOINT LeftHip
    {
        OFFSET 7.711267471313477 0.0 0.0
        CHANNELS 3 Zrotation Xrotation Yrotation
        JOINT LeftKnee
        {
            OFFSET 0.0 -27.585697174072266 0.0
            CHANNELS 3 Zrotation Xrotation Yrotation
            JOINT LeftAnkle
            {
                OFFSET 0.0 -37.280555725097656 0.0
                CHANNELS 3 Zrotation Xrotation Yrotation
                JOINT LeftFoot
                {
                    OFFSET 0.0 -12.307085037231445 0.0
                    CHANNELS 3 Zrotation Xrotation Yrotation
                    End Site
                    {
                        OFFSET 0.0 0.0 4.922833442687988
                    }
                }
            }
        }
    }
    JOINT RightHip
    {
        OFFSET -7.711267471313477 0.0 0.0
        CHANNELS 3 Zrotation Xrotation Yrotation
        JOINT RightKnee
        {
            OFFSET 0.0 -27.585697174072266 0.0
            CHANNELS 3 Zrotation Xrotation Yrotation
            JOINT RightAnkle
            {
                OFFSET 0.0 -37.280555725097656 0.0
                CHANNELS 3 Zrotation Xrotation Yrotation
                JOINT RightFoot
                {
                    OFFSET 0.0 -12.307085037231445 0.0
                    CHANNELS 3 Zrotation Xrotation Yrotation
                    End Site
                    {
                        OFFSET 0.0 0.0 4.922833442687988
                    }
                }
            }
        }
    }
}
MOTION
Frames: 8
Frame Time: 0.03333333333333333
-21.132080078125 -11.18844985961914 -351.0888977050781 9.207110524553253 5.991176391705145 119.20319833471635 -1.0174037004978498 -1.1525277978100703 0.18160452265540142 -5.816769689345528e-07 5.500946722463953e-07 -8.289797038558456 47.671686029316895 1.385773736053922 103.18124810434772 -5.679235525227958e-06 2.2168828838760224e-06 10.521713093164166 179.999999323106 -8.919839948874412 -121.4513557661212 -7.951386703658792e-16 0.0 0.0 32.33782249054325 -21.43675056552932 -80.73973214545106 -1.943006119216028e-06 -3.2084177882024953e-06 -53.21564335831815 179.99999973151358 64.70673480923048 167.0640735355597 -1.987846675914698e-16 2.758691436281349e-33 -1.5902773407317584e-15 45.000698560142055 7.325035155201035 19.39947099078584 -58.79885825288498 3.703513675220048 0.18550996868475403 6.333456375683837 34.5700654148382 -1.9704750083756377 0.0 0.0 -3.975693351829396e-16 -10.691271242281166 11.437562451967088 -7.025236561517803 -2.8179538616140203 -38.28975961739436 -3.4891990180057117 -139.94510899647815 76.90007076653254 145.06578052341382 0.0 0.0 1.5902773407317582e-15
-21.089590072631836 -11.147000312805176 -351.0361022949219 9.107009876114239 5.772598289461621 119.09739560040114 -0.4175938155285383 -0.801004904803554 0.13021719175664542 -2.2154308088485875e-07 1.724379963083782e-07 -7.713158842993902 45.68260883514372 -0.8234164253038 104.29897737028077 -1.4219277228350227e-06 9.846346677830997e-07 18.539475822272223 -179.999998586924 -7.962689883767061 -92.59016245439194 0.0 0.0 0.0 31.549266186552853 -25.601126043463704 -78.46198352338935 7.381278714758094e-07 -1.323154299193512e-06 -58.2529373333182 179.99999869023188 21.850360229608036 155.56651677194708 3.975693351829396e-16 0.0 0.0 28.910291153979134 9.481930707824324 14.029446342209226 -32.477753561891696 -12.016314916745307 1.7601437453546558 -4.371556820695065 40.512600265540605 -2.496480030980651 0.0 0.0 1.1430118386509513e-15 -11.545703931652465 14.333609883491272 -6.582666413122989 -0.6585224144468125 -41.56457661861498 -3.2577703828950915 -140.17338269048102 76.43113748569385 144.60953021632338 3.1805546814635168e-15 -2.2069531490250793e-31 -7.951386703658792e-15
-21.014429092407227 -11.10949993133545 -351.0329895019531 8.528621711330027 5.939899738418892 120.21340100601327 1.3073473403971092 -0.2510642933056267 0.0500469920633032 7.966400362472332e-07 -7.935165479880852e-07 -7.470511815545393 44.761100139425515 -8.121090612949533 117.08994556642305 -4.111979014596331e-06 1.1432395339989464e-05 9.112918163043176 -179.9999946650419 -5.509467408175691 -104.8901482189547 0.0 0.0 3.1805546814635168e-15 34.24632117702035 -35.578374003526186 -68.53522858754161 8.19247892497385e-07 -2.3572124452117745e-06 -58.374860676760235 -179.99999858801553 67.19391523893005 171.4431901618336 4.4139062980501586e-32 1.5902773407317584e-15 -3.1805546814635168e-15 27.91919119161598 8.146617595793362 15.88055404348472 -30.102550617041583 -9.950634841567293 1.6684992558991583 -1.7904689330606083 40.8155694503913 -5.005890259497767 0.0 0.0 -3.2302508483613845e-16 -11.975509791814945 12.937514952944923 -6.803709958426449 0.31531355192601973 -41.80914529398366 -2.54707261343767 -145.1424285085715 75.15333764150493 148.8548620198526 0.0 0.0 0.0
-19.953039169311523 -11.12205982208252 -350.8916015625 7.947554699076346 6.290853917860966 120.03102912683751 1.5458193711549735 -0.5640899678676016 0.12370860704690394 -2.5241578233198364e-07 1.831249961728081e-07 -8.121288097816544 42.479777667799446 -13.645091445578561 124.1649940675207 6.7293651027436315e-06 -5.213764098073025e-06 4.68833786526191 179.9999939039535 -7.749823509985038 -124.57371172407913 -1.5902773407317584e-15 6.3611093629270335e-15 -9.939233379573481e-17 27.685845386694098 -43.530153548372645 -60.29866140002559 1.3196378899115952e-06 -3.2540475248395762e-06 -63.561332962613335 3.3889528397834316e-06 77.4220717228138 -32.410304744952356 -1.5902773407317584e-15 6.3611093629270335e-15 8.827812596100317e-32 27.015152139968915 7.218399235097156 18.01164903548897 -31.044610462927267 -8.264680016892818 1.219112976900824 2.686820645848586 41.71858216768236 -7.384061505516616 0.0 0.0 -7.951386703658792e-16 -13.252283172712946 14.027105844595997 -7.055522266962854 5.1461175805290225 -44.67132925902713 0.2038785115569402 -151.28424356291498 73.87101646524933 152.0414296007617 -3.1805546814635164e-15 -6.361109362927033e-15 1.590277340731758e-15
-18.813499450683594 -11.60398006439209 -349.86041259765625 7.939212161419213 6.029397087763064 124.6910852692798 1.6152625281600945 -0.7971517914577849 0.19409573931504776 6.530994430398206e-07 -4.7529935750274136e-08 -12.950858927193211 63.090287282255474 -1.2784466165946613 131.6448919603387 8.565535255449347e-06 -2.5147489349819345e-05 2.6697676153175194 179.99999118704952 -24.559958176928582 -165.56581329150288 -3.1805546814635168e-15 6.3611093629270335e-15 1.7655625192200634e-31 26.843075433338363 -48.930469040906026 -59.87414746192972 4.855117931862404e-06 1.861992309317925e-06 -57.256109390733464 -1.8326488906170217e-06 32.1099383222647 -20.97856036155892 -3.1805546814635168e-15 1.2722218725854067e-14 3.531125038440127e-31 33.97485762769662 3.3209945240919936 71.15008465951732 -25.628801854693517 25.020029162696098 -2.5913011758972844 39.82918981728441 24.167456050006503 -22.519465898699416 7.951386703658792e-16 -3.1805546814635168e-15 1.5902773407317584e-15 -11.35339279993513 10.920051632515149 -11.663144434274095 4.710171910539463 -43.45696001840471 0.839391511077935 -157.8479348546573 71.64875150553172 158.01963381674753 0.0 0.0 0.0
-17.400039672851562 -11.844670295715332 -350.4427795410156 6.69387386815458 8.248070045857746 145.12353497077314 3.191726295909167 -1.8725201701036365 0.28893962344256574 8.824598951097355e-07 9.238291343926601e-07 -31.075739964574055 -90.41404845548405 -32.28415427105406 -1.4256921538966167 5.475868753730529e-06 -5.454441824180697e-06 67.61531223907478 179.9999954596424 -5.097797463957803 -171.30563140664938 0.0 -6.361109362927033e-15 0.0 37.66560986473112 -59.75697467485174 -41.92868641736123 -2.1751631531855434e-06 5.470331136175567e-06 -55.43744988286709 3.1332753354065014e-06 36.51947150578225 -29.29366685538597 -5.517382872562698e-33 -1.9878466759146977e-16 -3.1805546814635164e-15 27.479185764671197 -8.667809254560156 50.54603226049839 -17.952041907428743 20.103410185600495 0.7486745629260996 33.48542392502092 26.910056497278436 -15.46710152270607 2.33571984419977e-15 -8.103656094076463e-33 -3.975693351829396e-16 -12.769520923047514 27.20770040730777 -12.584214520342634 3.436732497746672 -55.32631305893445 -8.442717402331192 173.28510521908123 72.71235605173092 -168.03449299266435 -3.1805546814635164e-15 0.0 0.0
-16.546369552612305 -12.27810001373291 -351.1549987792969 6.388402254331534 9.720750990070222 148.08153462530572 2.1397429748287053 -1.679090492461535 0.18107636036758412 -9.15219064279502e-08 1.2291706540610097e-06 -33.21106587451862 -95.7020995692426 -39.464617990953194 9.149270068765551 6.003980387539878e-06 3.4878463913675066e-06 50.278345607071465 179.99999990527232 86.13052351370858 -125.36730205706183 -3.1805546814635168e-15 3.1805546814635168e-15 3.1805546814635168e-15 50.854423686542184 -56.96604651200986 -43.86754766550304 -3.868902126086263e-07 -1.456331607324589e-07 -32.77917477331355 179.99997367492367 17.108348300648483 178.73730550668222 -1.6151254241806927e-15 6.361109362927035e-15 4.174478019420867e-15 18.944398500524915 -8.415530243933844 47.4976171525609 -11.01520917673662 13.189417786302972 1.842938391777543 44.96892575761474 24.468356116771513 -17.42587560694574 -7.951386703658791e-16 0.0 0.0 -14.518346279748663 30.474185766885583 -15.809431187377104 12.928497456003036 -59.808429712474656 -2.9885725326201937 177.03211125726915 69.87366319500732 -175.58078818362975 0.0 0.0 0.0
-10.588899612426758 -14.20772933959961 -350.43731689453125 6.791659599024152 12.2964766434288 123.31430688630287 1.536717540334871 -0.9326113272485625 0.19827711481796295 -2.39451369515403e-07 1.1749020479568245e-07 -7.88870386750122 -95.39720178216704 -25.90422607937022 11.570183565592547 2.6302132811201877e-06 1.5323169645309038e-07 44.88977747270134 5.502198576357115e-06 83.2449413460914 59.517057480950164 0.0 0.0 7.951386703658792e-16 63.703430743831674 -55.65868172178709 -9.136164694277868 9.360984940793645e-07 -1.9788522341399285e-06 -48.650597629518856 -2.5354126089474905e-06 23.18113200561372 -27.75072609586897 -6.361109362927033e-15 0.0 0.0 14.178886086078268 6.19265995392175 20.28651523675792 -9.049491445261415 -2.5549282872115335 0.5559053921878426 105.61242296739091 60.140275241978706 -121.38298784702529 0.0 -6.3611093629270335e-15 0.0 -15.407531819440338 9.886342420142057 -8.794925144284502 24.950030313983056 -34.848958921568155 11.911326158138493 -156.02407622061685 74.30056444373402 140.58509308598477 0.0 0.0 0.0
